# xmcd
#
# Track frame offsets: 
#        150
#        8652
#        19992
#        29157
#        38972
#        48647
#        57877
#        66445
#        78577
#        89475
#        102210
#        112275
#        122750
#        132347
#        143182
#        154357
#        164315
#        174142
#        182742
#        195162
#        205345
#        215227
#        226205
#        237460
#        248857
#        264202
#        275502
#
# Disc length: 3814 seconds
#
# Revision: 2
# Processed by: cddbd v1.5.2PL0 Copyright (c) Steve Scherf et al.
# Submitted via: ExactAudioCopy v0.99pb4
#
DISCID=900ee41b
DTITLE=Johnny Seay - Blue Moon Of Kentucky
DYEAR=2006
DGENRE=Country
TTITLE0=Blue Moon Of Kentucky
TTITLE1=My Baby Walks All Over Me
TTITLE2=Mystery Train
TTITLE3=When My Blue Moon Turns To Gold Again
TTITLE4=Drown In My Sins
TTITLE5=All Mixed Up
TTITLE6=Why Can't I Just Come Home
TTITLE7=There's Another Man
TTITLE8=That's Where It All Began
TTITLE9=Lonesome Road
TTITLE10=Standing Room Only
TTITLE11=Every Day
TTITLE12=If It Wasn't For Hard Luck
TTITLE13=My Old Faded Rose
TTITLE14=Htchin' And Hikin'
TTITLE15=It's A Shame
TTITLE16=It Won't Be Easy To Forget
TTITLE17=I Love You
TTITLE18=Loneliness
TTITLE19=Frankie's Man Johnny
TTITLE20=Judy And Johnny
TTITLE21=Stranger
TTITLE22=My Time To Cry
TTITLE23=Nobody's Darling But Mine
TTITLE24=Ghost Riders In The Sky
TTITLE25=Mister And Mississippi
TTITLE26=A Man In Love
EXTD=(c)2006 Bear Family Records\nBCD 15153 AH\nupc 4000127161536
EXTT0=
EXTT1=
EXTT2=
EXTT3=
EXTT4=
EXTT5=
EXTT6=
EXTT7=
EXTT8=
EXTT9=
EXTT10=
EXTT11=
EXTT12=
EXTT13=
EXTT14=
EXTT15=
EXTT16=
EXTT17=
EXTT18=
EXTT19=
EXTT20=
EXTT21=
EXTT22=
EXTT23=
EXTT24=
EXTT25=
EXTT26=
PLAYORDER=
